<mxfile host="app.diagrams.net" modified="2023-04-06T03:01:08.957Z" agent="Mozilla/5.0 (X11; Linux x86_64) AppleWebKit/537.36 (KHTML, like Gecko) Chrome/110.0.0.0 Safari/537.36" version="21.1.4" etag="fV0nJGEfQFQypbWDZUmn" type="github">
  <diagram name="第 1 页" id="ARqrU3DXZ_RaPtgWk8fq">
    <mxGraphModel>
      <root>
        <mxCell id="0" />
        <mxCell id="1" parent="0" />
      </root>
    </mxGraphModel>
  </diagram>
</mxfile>
